<svg width="73" height="24" viewBox="0 0 73 24" fill="none" xmlns="http://www.w3.org/2000/svg">
<path d="M8.824 23.884C7.58667 23.884 6.30667 23.6813 4.984 23.276C3.87467 23.5533 2.904 23.692 2.072 23.692C1.26133 23.692 0.706667 23.6707 0.408 23.628C0.557333 22.3693 1.19733 19.18 2.328 14.06C3.48 8.91867 4.056 6.00667 4.056 5.324C4.056 4.62 3.90667 4.012 3.608 3.5C3.33067 2.988 3.05333 2.61467 2.776 2.38L2.328 2.028L2.424 1.548C2.97867 1.39867 4.10933 1.23867 5.816 1.068C7.544 0.875999 9.048 0.779999 10.328 0.779999C13.2933 0.779999 15.5333 1.44133 17.048 2.764C18.584 4.06533 19.352 6.188 19.352 9.132C19.352 11.5427 18.9467 13.8573 18.136 16.076C17.3467 18.2733 16.1307 20.1293 14.488 21.644C12.8453 23.1373 10.9573 23.884 8.824 23.884ZM11.096 2.796C10.5413 2.796 9.912 2.86 9.208 2.988C8.99467 5.24933 8.38667 8.556 7.384 12.908C6.40267 17.2387 5.82667 20.0013 5.656 21.196C6.168 21.452 6.872 21.58 7.768 21.58C8.664 21.58 9.50667 21.228 10.296 20.524C11.1067 19.7987 11.7573 18.9027 12.248 17.836C12.7387 16.7693 13.1653 15.5747 13.528 14.252C14.1467 11.884 14.456 9.72933 14.456 7.788C14.456 5.84667 14.2 4.53467 13.688 3.852C13.176 3.148 12.312 2.796 11.096 2.796ZM29.996 10.252C30.0387 10.2093 30.156 9.932 30.348 9.42C31.3507 9.42 32.6947 9.71867 34.38 10.316C33.8467 12.0867 33.42 13.9427 33.1 15.884C32.78 17.804 32.62 19.18 32.62 20.012C32.62 20.8227 32.7053 21.228 32.876 21.228C33.004 21.228 33.4733 21.0253 34.284 20.62L34.668 20.428L35.244 21.548C35.052 21.7187 34.796 21.932 34.476 22.188C34.1773 22.444 33.6013 22.796 32.748 23.244C31.8947 23.6707 31.1267 23.884 30.444 23.884C29.1213 23.884 28.3533 23.2867 28.14 22.092C26.7747 23.2867 25.5373 23.884 24.428 23.884C23.34 23.884 22.412 23.4573 21.644 22.604C20.8973 21.7507 20.524 20.4067 20.524 18.572C20.524 15.7133 21.1107 13.4627 22.284 11.82C23.4573 10.156 24.876 9.324 26.54 9.324C27.7347 9.324 28.8867 9.63333 29.996 10.252ZM26.348 21.164C26.86 21.164 27.436 20.9613 28.076 20.556C28.2253 17.548 28.7267 14.572 29.58 11.628C28.94 11.3507 28.396 11.212 27.948 11.212C27.18 11.212 26.5187 11.9693 25.964 13.484C25.4307 14.9773 25.164 16.6307 25.164 18.444C25.164 20.2573 25.5587 21.164 26.348 21.164ZM38.939 9.324C39.8777 9.324 40.571 9.516 41.019 9.9C41.4883 10.284 41.723 11.0733 41.723 12.268C41.723 12.908 41.531 14.22 41.147 16.204C40.763 18.1667 40.571 19.3613 40.571 19.788C40.571 20.6413 40.7417 21.068 41.083 21.068C41.8937 21.068 42.779 20.4707 43.739 19.276C44.7203 18.06 45.2323 17.0467 45.275 16.236L43.099 13.804C43.1843 12.8867 43.4083 12.0547 43.771 11.308C44.1337 10.5613 44.475 10.0387 44.795 9.74L45.243 9.324C46.1603 9.324 46.8537 9.56933 47.323 10.06C47.7923 10.5507 48.027 11.1267 48.027 11.788C48.027 13.4733 47.611 15.2547 46.779 17.132C45.947 19.0093 44.8377 20.6093 43.451 21.932C42.0643 23.2333 40.6563 23.884 39.227 23.884C38.331 23.884 37.6377 23.6067 37.147 23.052C36.6777 22.4973 36.443 21.772 36.443 20.876C36.443 19.9587 36.507 18.732 36.635 17.196C36.7843 15.66 36.859 14.1347 36.859 12.62C36.859 12.2787 36.731 11.8733 36.475 11.404C36.2403 10.9347 35.995 10.5613 35.739 10.284L35.835 9.9C36.987 9.516 38.0217 9.324 38.939 9.324ZM55.0528 11.308C55.0528 12.204 54.7648 13.7507 54.1888 15.948C53.6128 18.124 53.3248 19.5533 53.3248 20.236C53.3248 20.8973 53.4208 21.228 53.6128 21.228C53.7408 21.228 54.2314 21.0253 55.0848 20.62L55.4688 20.428L56.0128 21.548C55.8208 21.7187 55.5648 21.932 55.2448 22.188C54.9248 22.444 54.3274 22.796 53.4528 23.244C52.5781 23.6707 51.7674 23.884 51.0208 23.884C50.2741 23.884 49.6874 23.66 49.2608 23.212C48.8341 22.7427 48.6208 22.124 48.6208 21.356C48.6208 20.5667 48.8874 19.18 49.4208 17.196C49.9541 15.1907 50.2208 13.8893 50.2208 13.292C50.2208 12.396 49.9434 11.5533 49.3888 10.764L49.1008 10.38L49.1328 9.964C50.2634 9.644 52.0981 9.484 54.6368 9.484C54.9141 9.804 55.0528 10.412 55.0528 11.308ZM51.4048 5.996C50.9781 5.56933 50.7648 5.004 50.7648 4.3C50.7648 3.596 51.0528 2.97733 51.6288 2.444C52.2261 1.91067 52.9088 1.644 53.6768 1.644C54.4448 1.644 55.0421 1.85733 55.4688 2.284C55.8954 2.71067 56.1088 3.276 56.1088 3.98C56.1088 4.66267 55.7994 5.27067 55.1808 5.804C54.5834 6.33733 53.9114 6.604 53.1648 6.604C52.4181 6.604 51.8314 6.40133 51.4048 5.996ZM72.3155 21.548C70.5022 23.1053 68.9022 23.884 67.5155 23.884C66.1502 23.884 65.3608 23.2013 65.1475 21.836C64.5075 22.476 63.7928 22.9773 63.0035 23.34C62.2142 23.7027 61.5208 23.884 60.9235 23.884C59.8995 23.884 59.0248 23.436 58.2995 22.54C57.5742 21.644 57.2115 20.2573 57.2115 18.38C57.2115 15.564 57.8088 13.356 59.0035 11.756C60.1982 10.1347 61.5422 9.324 63.0355 9.324C64.5502 9.324 65.8195 9.66533 66.8435 10.348C67.5048 6.892 67.8355 4.172 67.8355 2.188L67.6755 0.844C69.2755 0.289333 70.8435 0.0119991 72.3795 0.0119991C72.5502 0.374666 72.6355 0.790666 72.6355 1.26C72.6355 2.81733 72.1662 5.98533 71.2275 10.764C70.2888 15.5213 69.8195 18.7533 69.8195 20.46C69.8195 20.972 69.9368 21.228 70.1715 21.228C70.2995 21.228 70.7048 21.0253 71.3875 20.62L71.7075 20.428L72.3155 21.548ZM64.6035 11.212C63.8568 11.212 63.2062 11.948 62.6515 13.42C62.1182 14.892 61.8515 16.3533 61.8515 17.804C61.8515 19.2333 61.9475 20.1507 62.1395 20.556C62.3528 20.9613 62.6622 21.164 63.0675 21.164C63.7715 21.164 64.4648 20.876 65.1475 20.3C65.2115 19.4467 65.6915 16.6093 66.5875 11.788C65.8622 11.404 65.2008 11.212 64.6035 11.212Z" fill="white"/>
<path d="M8.824 23.884C7.58667 23.884 6.30667 23.6813 4.984 23.276C3.87467 23.5533 2.904 23.692 2.072 23.692C1.26133 23.692 0.706667 23.6707 0.408 23.628C0.557333 22.3693 1.19733 19.18 2.328 14.06C3.48 8.91867 4.056 6.00667 4.056 5.324C4.056 4.62 3.90667 4.012 3.608 3.5C3.33067 2.988 3.05333 2.61467 2.776 2.38L2.328 2.028L2.424 1.548C2.97867 1.39867 4.10933 1.23867 5.816 1.068C7.544 0.875999 9.048 0.779999 10.328 0.779999C13.2933 0.779999 15.5333 1.44133 17.048 2.764C18.584 4.06533 19.352 6.188 19.352 9.132C19.352 11.5427 18.9467 13.8573 18.136 16.076C17.3467 18.2733 16.1307 20.1293 14.488 21.644C12.8453 23.1373 10.9573 23.884 8.824 23.884ZM11.096 2.796C10.5413 2.796 9.912 2.86 9.208 2.988C8.99467 5.24933 8.38667 8.556 7.384 12.908C6.40267 17.2387 5.82667 20.0013 5.656 21.196C6.168 21.452 6.872 21.58 7.768 21.58C8.664 21.58 9.50667 21.228 10.296 20.524C11.1067 19.7987 11.7573 18.9027 12.248 17.836C12.7387 16.7693 13.1653 15.5747 13.528 14.252C14.1467 11.884 14.456 9.72933 14.456 7.788C14.456 5.84667 14.2 4.53467 13.688 3.852C13.176 3.148 12.312 2.796 11.096 2.796ZM29.996 10.252C30.0387 10.2093 30.156 9.932 30.348 9.42C31.3507 9.42 32.6947 9.71867 34.38 10.316C33.8467 12.0867 33.42 13.9427 33.1 15.884C32.78 17.804 32.62 19.18 32.62 20.012C32.62 20.8227 32.7053 21.228 32.876 21.228C33.004 21.228 33.4733 21.0253 34.284 20.62L34.668 20.428L35.244 21.548C35.052 21.7187 34.796 21.932 34.476 22.188C34.1773 22.444 33.6013 22.796 32.748 23.244C31.8947 23.6707 31.1267 23.884 30.444 23.884C29.1213 23.884 28.3533 23.2867 28.14 22.092C26.7747 23.2867 25.5373 23.884 24.428 23.884C23.34 23.884 22.412 23.4573 21.644 22.604C20.8973 21.7507 20.524 20.4067 20.524 18.572C20.524 15.7133 21.1107 13.4627 22.284 11.82C23.4573 10.156 24.876 9.324 26.54 9.324C27.7347 9.324 28.8867 9.63333 29.996 10.252ZM26.348 21.164C26.86 21.164 27.436 20.9613 28.076 20.556C28.2253 17.548 28.7267 14.572 29.58 11.628C28.94 11.3507 28.396 11.212 27.948 11.212C27.18 11.212 26.5187 11.9693 25.964 13.484C25.4307 14.9773 25.164 16.6307 25.164 18.444C25.164 20.2573 25.5587 21.164 26.348 21.164ZM38.939 9.324C39.8777 9.324 40.571 9.516 41.019 9.9C41.4883 10.284 41.723 11.0733 41.723 12.268C41.723 12.908 41.531 14.22 41.147 16.204C40.763 18.1667 40.571 19.3613 40.571 19.788C40.571 20.6413 40.7417 21.068 41.083 21.068C41.8937 21.068 42.779 20.4707 43.739 19.276C44.7203 18.06 45.2323 17.0467 45.275 16.236L43.099 13.804C43.1843 12.8867 43.4083 12.0547 43.771 11.308C44.1337 10.5613 44.475 10.0387 44.795 9.74L45.243 9.324C46.1603 9.324 46.8537 9.56933 47.323 10.06C47.7923 10.5507 48.027 11.1267 48.027 11.788C48.027 13.4733 47.611 15.2547 46.779 17.132C45.947 19.0093 44.8377 20.6093 43.451 21.932C42.0643 23.2333 40.6563 23.884 39.227 23.884C38.331 23.884 37.6377 23.6067 37.147 23.052C36.6777 22.4973 36.443 21.772 36.443 20.876C36.443 19.9587 36.507 18.732 36.635 17.196C36.7843 15.66 36.859 14.1347 36.859 12.62C36.859 12.2787 36.731 11.8733 36.475 11.404C36.2403 10.9347 35.995 10.5613 35.739 10.284L35.835 9.9C36.987 9.516 38.0217 9.324 38.939 9.324ZM55.0528 11.308C55.0528 12.204 54.7648 13.7507 54.1888 15.948C53.6128 18.124 53.3248 19.5533 53.3248 20.236C53.3248 20.8973 53.4208 21.228 53.6128 21.228C53.7408 21.228 54.2314 21.0253 55.0848 20.62L55.4688 20.428L56.0128 21.548C55.8208 21.7187 55.5648 21.932 55.2448 22.188C54.9248 22.444 54.3274 22.796 53.4528 23.244C52.5781 23.6707 51.7674 23.884 51.0208 23.884C50.2741 23.884 49.6874 23.66 49.2608 23.212C48.8341 22.7427 48.6208 22.124 48.6208 21.356C48.6208 20.5667 48.8874 19.18 49.4208 17.196C49.9541 15.1907 50.2208 13.8893 50.2208 13.292C50.2208 12.396 49.9434 11.5533 49.3888 10.764L49.1008 10.38L49.1328 9.964C50.2634 9.644 52.0981 9.484 54.6368 9.484C54.9141 9.804 55.0528 10.412 55.0528 11.308ZM51.4048 5.996C50.9781 5.56933 50.7648 5.004 50.7648 4.3C50.7648 3.596 51.0528 2.97733 51.6288 2.444C52.2261 1.91067 52.9088 1.644 53.6768 1.644C54.4448 1.644 55.0421 1.85733 55.4688 2.284C55.8954 2.71067 56.1088 3.276 56.1088 3.98C56.1088 4.66267 55.7994 5.27067 55.1808 5.804C54.5834 6.33733 53.9114 6.604 53.1648 6.604C52.4181 6.604 51.8314 6.40133 51.4048 5.996ZM72.3155 21.548C70.5022 23.1053 68.9022 23.884 67.5155 23.884C66.1502 23.884 65.3608 23.2013 65.1475 21.836C64.5075 22.476 63.7928 22.9773 63.0035 23.34C62.2142 23.7027 61.5208 23.884 60.9235 23.884C59.8995 23.884 59.0248 23.436 58.2995 22.54C57.5742 21.644 57.2115 20.2573 57.2115 18.38C57.2115 15.564 57.8088 13.356 59.0035 11.756C60.1982 10.1347 61.5422 9.324 63.0355 9.324C64.5502 9.324 65.8195 9.66533 66.8435 10.348C67.5048 6.892 67.8355 4.172 67.8355 2.188L67.6755 0.844C69.2755 0.289333 70.8435 0.0119991 72.3795 0.0119991C72.5502 0.374666 72.6355 0.790666 72.6355 1.26C72.6355 2.81733 72.1662 5.98533 71.2275 10.764C70.2888 15.5213 69.8195 18.7533 69.8195 20.46C69.8195 20.972 69.9368 21.228 70.1715 21.228C70.2995 21.228 70.7048 21.0253 71.3875 20.62L71.7075 20.428L72.3155 21.548ZM64.6035 11.212C63.8568 11.212 63.2062 11.948 62.6515 13.42C62.1182 14.892 61.8515 16.3533 61.8515 17.804C61.8515 19.2333 61.9475 20.1507 62.1395 20.556C62.3528 20.9613 62.6622 21.164 63.0675 21.164C63.7715 21.164 64.4648 20.876 65.1475 20.3C65.2115 19.4467 65.6915 16.6093 66.5875 11.788C65.8622 11.404 65.2008 11.212 64.6035 11.212Z" fill="#1B6770" fill-opacity="0.96"/>
</svg>
